#!OML:ASF F:\VICON\USERDATA\INSTALL\rory3\rory3.ASF
:FULLY-SPECIFIED
:DEGREES
36
root 0.13535447916044124 17.81593309915548 4.386466952865912 -2.771530880207093 -4.466778401619252 -1.3835455837453785
lfemur 1.6669353289667956 -1.0022500007021893 -20.582165049137146
ltibia 28.19613766361472
lfoot -13.462505255801283 3.736701499481047
ltoes -9.71741825721459
rfemur -19.21183388824184 6.245287400904287 25.48251150498198
rtibia 28.28276994264614
rfoot -11.255412415238577 -8.086783214811414
rtoes -0.510767438830233
lowerback 10.532297177145495 0.3254819263680579 -1.2775289994226051
upperback 0.399816866367025 0.2922598479594983 1.5508764846491194
thorax -5.683635847442741 0.3063398264683751 2.338576585012553
lowerneck -15.863677946662277 -2.7347521043759007 -1.7592071476135356
upperneck 23.056864818737765 -3.4163189128359948 0.5606101403145167
head 10.14431782653734 -1.7225224238727628 0.085066268218747
lclavicle -2.7026064543720022e-15 -2.3230481476746425e-15
lhumerus -26.714277753304533 0.24030383616613404 80.03801267036093
lradius 25.485390221616324
lwrist 6.776687197375237
lhand -27.97476520978023 23.979341693211904
lfingers 7.125020000000001
lthumb -1.7314131029148871 53.81906411936634
rclavicle -2.7026064543871807e-15 -2.323048147684687e-15
rhumerus -26.869252272485465 -19.12926589943166 -77.54503216151065
rradius 20.860202208066216
rwrist 7.949239926357925
rhand -18.08060642561273 22.145254535501746
rfingers 7.125020000000001
rthumb 8.177911702943724 -7.859336615195969
37
root 0.14212736964482903 17.843350869543606 4.839373364596378 -2.210871739684284 -3.842867078945697 -2.560500538949592
lfemur -0.23831945319756542 -1.1521940250561784 -19.293042160181777
ltibia 32.413479376204094
lfoot -10.974908906869594 2.44530155810084
ltoes -9.191718895220715
rfemur -18.143640534030332 6.35620267840383 26.41371246586418
rtibia 26.565606341215812
rfoot -9.630512833181859 -7.81613141711521
rtoes 0.5414656988086373
lowerback 10.493483839235166 0.20256056445922827 -0.12949511213616205
upperback 0.30113505597427265 0.3677200380174275 1.8204136437870915
thorax -5.7700794230404435 0.2938951020156264 2.217134466268175
lowerneck -15.875567307625067 -2.689431845383159 -1.7605910763310473
upperneck 23.15299972268178 -3.300670696769791 0.4221421139514012
head 10.142067733371771 -1.6851800846427074 0.05385247978821803
lclavicle -2.702606454380517e-15 -2.323048147680724e-15
lhumerus -25.4460102667226 -0.3165069390342552 79.89312264177626
lradius 26.639715138217387
lwrist 6.851467636271973
lhand -27.542430277697886 24.830805489553534
lfingers 7.125020000000001
lthumb -1.4613186963551181 54.390815909330755
rclavicle -2.7026064543907483e-15 -2.3230481476873534e-15
rhumerus -27.699734969062696 -20.236810123791905 -77.78590985242757
rradius 20.62429296301844
rwrist 8.069621856441449
rhand -18.130468893509416 22.19611660349183
rfingers 7.125020000000001
rthumb 8.192712459954556 -7.678966283705259
38
root 0.16173858479301445 17.864072221972254 5.500097038788598 -1.9670762521765641 -3.429230788094544 -3.1247863373189997
lfemur -0.9743084616199056 -1.2981819053308292 -18.310279959416604
ltibia 36.93162379556699
lfoot -7.3388821908436235 -0.40414742134048653
ltoes -4.8877924360164835
rfemur -16.77151386908023 6.442657791497321 26.96246241087391
rtibia 25.32761484024959
rfoot -8.119370898336511 -7.659409106975905
rtoes 1.932036580007558
lowerback 10.489655826382824 0.13893859148322757 0.6306942030640245
upperback 0.25091385687274775 0.4202645331997462 2.0515962466083817
thorax -5.729880852695094 0.28142513316468265 2.0826056974699623
lowerneck -15.92653563816369 -2.6541352394042166 -1.7466447760501067
upperneck 23.390869334602012 -3.208165380397277 0.2897846979093336
head 10.189969039444458 -1.6568985289291684 0.023279933283184617
lclavicle -2.702606454389319e-15 -2.3230481476869763e-15
lhumerus -24.604742553582984 -0.6256087117092575 79.72121016698307
lradius 27.904339713170348
lwrist 6.926405320147141
lhand -27.428239191055535 24.870194305619933
lfingers 7.125020000000001
lthumb -1.4910408311867205 54.27561178430412
rclavicle -2.7026064544019415e-15 -2.3230481476953453e-15
rhumerus -28.440699020435424 -20.668328718485196 -78.10460460035098
rradius 20.978210876303777
rwrist 6.162214925626279
rhand -18.13377317466537 22.32509931175254
rfingers 7.125020000000001
rthumb 8.152236818233423 -7.4490924222184045
39
root 0.20536440269497025 17.91226316795604 6.884992400591651 -1.491944340924142 -2.991516292838168 -3.8608340838976734
lfemur -2.381627553409116 -1.513580261369605 -17.40182380514487
ltibia 41.81208686739627
lfoot -5.639786083722556 -2.6792656442234284
ltoes -5.763243196435127
rfemur -15.127610966709568 6.439077916498491 27.737404570694963
rtibia 23.485732929936862
rfoot -6.9279090053501875 -7.611652157206324
rtoes 2.796969566185105
lowerback 10.353559893246619 0.0526707166106217 1.489900421373489
upperback 0.3812718743010725 0.6063927736241462 2.2357704887518564
thorax -5.60856797685597 0.3370657762935416 1.8344501142637744
lowerneck -15.996489843412588 -2.6243125871339448 -1.6906286989264312
upperneck 23.532598830569434 -3.1381782646104206 0.12546466062933676
head 10.249115320747888 -1.63384935119591 -0.03589135708025257
lclavicle -2.7026064543846745e-15 -2.3230481476842196e-15
lhumerus -24.01033724989768 -0.6660033266654626 79.62253569724444
lradius 29.037131718265712
lwrist 6.86593994098247
lhand -27.060607695868015 25.278734168584336
lfingers 7.125020000000001
lthumb -1.0694193874025775 54.69380238856592
rclavicle -2.7026064544007475e-15 -2.3230481476950045e-15
rhumerus -29.429218746460787 -20.875550458916674 -78.09437326488013
rradius 21.942756081277082
rwrist 1.8444274588240726
rhand -18.237069169350793 22.293865561994078
rfingers 7.125020000000001
rthumb 8.130828227978338 -7.263685012324197
40
root 0.24933574408394882 17.92584911128496 8.038524022986573 -1.7882748537588473 -3.1678278498605774 -3.345133272059744
lfemur -2.999071693898693 -1.5144307431833324 -17.537972541370735
ltibia 45.82633859764201
lfoot -5.093296074324918 -3.3804397364423346
ltoes -3.5602907701364255
rfemur -14.073654179588498 6.376283070370189 27.458759750920898
rtibia 22.683201712129097
rfoot -6.210312542582864 -7.411497730198134
rtoes 5.183420068530453
lowerback 10.32419362683572 0.14723838995289432 1.296950385685553
upperback 0.495856225125743 0.6256851576914385 2.173539562695575
thorax -5.486108224640886 0.3407283526280662 1.676712425967294
lowerneck -16.023020555292522 -2.6129737857710302 -1.6698637982011058
upperneck 23.718484090343775 -3.1005524925029704 0.010188989670330714
head 10.306822674718 -1.6226789051705715 -0.07058266248391494
lclavicle -2.702606454387129e-15 -2.3230481476865097e-15
lhumerus -23.833293119096716 -0.5170871504962626 79.59482405199212
lradius 29.9320475924743
lwrist 6.931980134642737
lhand -27.347841689227337 24.64559477858237
lfingers 7.125020000000001
lthumb -1.2707511815070647 54.30846588091843
rclavicle -2.702606454404366e-15 -2.3230481476981264e-15
rhumerus -30.39699624731813 -21.18077816685258 -77.73469543168454
rradius 22.941040173137363
rwrist -1.4244643214923443
rhand -18.14905845268095 22.422347447134307
rfingers 7.125020000000001
rthumb 8.112222985113299 -7.068900585667925
41
root 0.30281843307276923 17.93609616679345 9.339900380369576 -2.100685101640043 -3.327734068581069 -3.0793111561692283
lfemur -3.3520463125258217 -1.435221550874052 -17.568623842866106
ltibia 48.94802456586685
lfoot -5.3007189831017865 -2.993774890569756
ltoes -2.4419657715114838
rfemur -13.108544215500448 6.392003312334562 27.40929703596309
rtibia 22.268943349419445
rfoot -6.0434832057744305 -6.995119175414156
rtoes 6.810693352238398
lowerback 10.348801288136293 0.3166988226061637 1.3476888421199096
upperback 0.45492961035852814 0.7795681324529159 2.1074681983060044
thorax -5.540391434431919 0.4297143570995744 1.4567941535282731
lowerneck -15.9747795777484 -2.6068120375399544 -1.6419287817263084
upperneck 23.787344293855995 -3.07215650180279 -0.1042683510411629
head 10.377556681609086 -1.6124965701978387 -0.11926740976464512
lclavicle -2.702606454407958e-15 -2.323048147701473e-15
lhumerus -23.8278171937862 -0.05450842753814289 79.73143224048442
lradius 30.631693107191392
lwrist 6.625593886017373
lhand -27.35012566806365 24.416133576261608
lfingers 7.125020000000001
lthumb -1.185415714520139 54.22504899379785
rclavicle -2.7026064544028684e-15 -2.3230481476973183e-15
rhumerus -31.502007797451313 -21.373983609945768 -77.35189853510781
rradius 23.727302294664767
rwrist -3.7496812119629723
rhand -18.262853605821885 22.25536845786354
rfingers 7.125020000000001
rthumb 8.016458805608721 -7.1541717442318
